<svg width="99" height="49" viewBox="0 0 99 49" fill="none" xmlns="http://www.w3.org/2000/svg">
<path d="M5.73828 1.93185C6.02417 0.864919 7.12084 0.231754 8.18777 0.517638L98.9848 24.8466L87.3381 34.1492L92.7731 48.0288L1.97611 23.6999C0.909181 23.414 0.276018 22.3173 0.561901 21.2504L5.73828 1.93185Z" fill="url(#paint0_linear_71_4215)"/>
<path d="M20.8892 21.6976L23.1596 13.2245L26.5326 14.1283C28.2017 14.5755 28.9888 15.7182 28.6099 17.1323C28.3583 18.0712 27.7609 18.6316 26.871 18.7535C27.6859 19.2824 27.9578 20.0758 27.6938 21.0611C27.3056 22.5099 26.0704 23.0859 24.3202 22.6169L20.8892 21.6976ZM26.0541 15.4039L24.2923 14.9318L23.6742 17.2385L25.4708 17.7199C26.2822 17.9373 26.8492 17.6295 27.0511 16.8761C27.2467 16.1459 26.8887 15.6275 26.0541 15.4039ZM25.2281 18.9965L23.3388 18.4903L22.7238 20.7853L24.6132 21.2916C25.4477 21.5152 26.0201 21.2338 26.2251 20.4687C26.4176 19.7501 26.0511 19.2171 25.2281 18.9965ZM30.7519 24.5018C29.048 24.0452 28.1864 22.4851 28.6616 20.7116C29.143 18.915 30.6461 17.9885 32.3268 18.4388C34.0423 18.8985 34.8243 20.3379 34.346 22.123L34.2311 22.5518L29.9161 21.4081C29.7502 22.4444 30.1468 23.0973 31.0857 23.3489C31.8623 23.557 32.453 23.3923 32.7613 22.891L34.0711 23.2419C33.4922 24.4285 32.2471 24.9024 30.7519 24.5018ZM32.0278 19.601C31.1932 19.3774 30.5621 19.6928 30.1932 20.5133L33.0678 21.2835C33.279 20.4953 32.8739 19.8277 32.0278 19.601ZM34.7081 23.5369L36.0527 23.8971C35.9307 24.3987 36.2178 24.811 36.8669 24.9849C37.5276 25.162 37.9583 24.9916 38.0702 24.5744C38.1478 24.2846 38.053 24.0356 37.5741 23.783L36.6077 23.2632C35.6382 22.7549 35.2702 22.1346 35.5156 21.2189C35.8168 20.0945 36.9475 19.6769 38.2688 20.031C39.5555 20.3757 40.226 21.3505 39.9395 22.4663L38.5949 22.1061C38.7137 21.6161 38.473 21.2162 37.9283 21.0702C37.3719 20.9212 36.979 21.0892 36.8641 21.5181C36.7771 21.8426 36.9762 22.1196 37.432 22.3659L38.3984 22.8858C39.3014 23.3638 39.6702 23.9347 39.4342 24.8156C39.1236 25.9747 37.9458 26.4294 36.5317 26.0505C35.106 25.6685 34.4069 24.6612 34.7081 23.5369ZM41.9954 27.353L40.5813 26.9741L41.7988 22.4304L40.6977 22.1353L41.0144 20.953L42.1156 21.2481L42.5939 19.463L44.008 19.8419L43.5297 21.627L44.6425 21.9251L44.3257 23.1074L43.2129 22.8093L41.9954 27.353ZM49.6963 29.4164L48.7675 20.0861L50.3439 20.5085L50.8909 25.8853C50.9397 26.445 50.9684 26.9869 50.9707 27.7205C51.3781 27.0345 51.6917 26.5595 51.9689 26.1741L55.1078 21.785L56.6495 22.1981L51.2263 29.8264L49.6963 29.4164ZM55.9176 31.2449C54.7005 30.9188 54.1481 30.013 54.437 28.935C54.7196 27.8802 55.6616 27.4245 57.0457 27.6836L58.7954 28.0157L58.8296 27.8882C59.0376 27.1116 58.6579 26.6744 57.9392 26.4819C57.1046 26.2582 56.5478 26.4817 56.3863 27.0845L55.1808 26.7615C55.5132 25.5212 56.7506 24.9832 58.3038 25.3993C59.8454 25.8124 60.5723 26.9016 60.1468 28.4896L59.215 31.967L57.9748 31.6346L58.0972 30.7605C57.6954 31.2865 56.8101 31.4841 55.9176 31.2449ZM56.6669 30.3028C57.5363 30.5357 58.2324 30.1632 58.4684 29.2823L58.5492 28.9809L57.3305 28.7537C56.4278 28.5988 56.014 28.7985 55.8898 29.2622C55.75 29.7838 56.0294 30.1319 56.6669 30.3028ZM62.0299 32.7212L60.6274 32.3454L62.9382 23.7216L64.3407 24.0974L62.0299 32.7212ZM68.9306 28.4331L70.3448 28.812L68.8105 34.5381L67.5007 34.1871L67.6013 33.3941C67.1076 33.8457 66.2664 34.0179 65.5014 33.8129C64.18 33.4588 63.6426 32.3582 64.0184 30.9557L64.9781 27.374L66.3922 27.753L65.566 30.8362C65.2741 31.9258 65.5849 32.4811 66.3731 32.6923C67.2656 32.9315 67.8343 32.5248 68.1262 31.4352L68.9306 28.4331ZM72.6791 35.7362C70.9752 35.2796 70.1137 33.7194 70.5888 31.946C71.0703 30.1494 72.5733 29.2228 74.254 29.6732C75.9695 30.1328 76.7516 31.5723 76.2733 33.3573L76.1583 33.7862L71.8433 32.6424C71.6775 33.6788 72.074 34.3317 73.0129 34.5833C73.7895 34.7913 74.3802 34.6266 74.6885 34.1253L75.9983 34.4763C75.4194 35.6629 74.1744 36.1368 72.6791 35.7362ZM73.955 30.8354C73.1204 30.6118 72.4893 30.9272 72.1204 31.7476L74.995 32.5179C75.2062 31.7297 74.8011 31.0621 73.955 30.8354Z" fill="#121212"/>
<defs>
<linearGradient id="paint0_linear_71_4215" x1="6.25592" y1="0" x2="87.1028" y2="56.1877" gradientUnits="userSpaceOnUse">
<stop stop-color="#FBFF3C"/>
<stop offset="1" stop-color="#FFC077"/>
</linearGradient>
</defs>
</svg>
