<svg width="24" height="24" viewBox="0 0 24 24" fill="none" xmlns="http://www.w3.org/2000/svg">
<g clip-path="url(#clip0_71_3937)">
<path d="M20.5334 1.52661C20.5075 1.46875 20.4654 1.41967 20.4121 1.38535C20.3588 1.35102 20.2967 1.33293 20.2334 1.33327H10.9467C10.8909 1.33336 10.8361 1.34745 10.7871 1.37424C10.7382 1.40103 10.6968 1.43966 10.6667 1.48661L3.5267 12.8199C3.49232 12.8693 3.47224 12.9272 3.46866 12.9872C3.46508 13.0472 3.47814 13.1071 3.50641 13.1602C3.53467 13.2133 3.57704 13.2575 3.62885 13.2881C3.68066 13.3186 3.7399 13.3342 3.80003 13.3333H8.91336L4.40003 22.1666C4.37412 22.2191 4.36194 22.2774 4.36463 22.3359C4.36732 22.3944 4.38479 22.4513 4.41542 22.5012C4.44604 22.5511 4.48882 22.5925 4.53975 22.6214C4.59069 22.6503 4.64813 22.6659 4.7067 22.6666H6.7067C6.75296 22.6669 6.79879 22.6576 6.84125 22.6392C6.88372 22.6209 6.9219 22.5939 6.95336 22.5599L18.6667 9.89994C18.7132 9.85254 18.7445 9.79234 18.7565 9.72704C18.7686 9.66174 18.7609 9.59433 18.7344 9.53345C18.7079 9.47257 18.6638 9.42099 18.6078 9.38532C18.5518 9.34966 18.4864 9.33153 18.42 9.33327H13.9267L20.48 1.87994C20.5223 1.83259 20.5498 1.77396 20.5593 1.71121C20.5688 1.64846 20.5598 1.58432 20.5334 1.52661Z" fill="white"/>
</g>
<defs>
<clipPath id="clip0_71_3937">
<rect width="24" height="24" fill="white"/>
</clipPath>
</defs>
</svg>
