<svg width="16" height="16" viewBox="0 0 16 16" fill="none" xmlns="http://www.w3.org/2000/svg">
<path fill-rule="evenodd" clip-rule="evenodd" d="M8 14C8.78793 14 9.56815 13.8448 10.2961 13.5432C11.0241 13.2417 11.6855 12.7998 12.2426 12.2426C12.7998 11.6855 13.2417 11.024 13.5433 10.2961C13.8448 9.56812 14 8.7879 14 7.99997C14 7.21204 13.8448 6.43182 13.5433 5.70387C13.2417 4.97592 12.7998 4.31448 12.2426 3.75733C11.6855 3.20018 11.0241 2.75822 10.2961 2.45669C9.56815 2.15516 8.78793 1.99997 8 1.99997C6.4087 1.99997 4.88258 2.63211 3.75736 3.75733C2.63214 4.88255 2 6.40867 2 7.99997C2 9.59127 2.63214 11.1174 3.75736 12.2426C4.88258 13.3678 6.4087 14 8 14ZM7.84533 10.4266L11.1787 6.42664L10.1547 5.5733L7.288 9.01264L5.80467 7.52864L4.862 8.4713L6.862 10.4713L7.378 10.9873L7.84533 10.4266Z" fill="#FE4600"/>
</svg>
