<svg width="22" height="22" viewBox="0 0 22 22" fill="none" xmlns="http://www.w3.org/2000/svg">
<circle cx="11" cy="11" r="10" stroke="#8F95B2" stroke-width="0.5"/>
<g clip-path="url(#clip0_71_4161)">
<path fill-rule="evenodd" clip-rule="evenodd" d="M9.692 5.93796C9.01193 6.29222 8.45554 6.592 8.45566 6.60419C8.45596 6.63566 10.0878 7.46211 10.1458 7.4601C10.1721 7.45921 10.3633 7.37123 10.5705 7.2646L10.9473 7.07077L11.3589 7.28233L11.7705 7.49392L12.4445 7.19106C13.4601 6.7347 13.5655 6.68469 13.549 6.66789C13.5271 6.6456 13.1628 6.44991 12.1745 5.92961C11.6969 5.67815 11.2333 5.43159 11.1443 5.3817C11.0553 5.33181 10.9704 5.29168 10.9555 5.29245C10.9407 5.29323 10.3721 5.58371 9.692 5.93796ZM6.70922 7.48254L6.00128 7.84822V9.45311C6.00128 10.3358 6.01057 11.058 6.02198 11.058C6.03334 11.058 6.38165 10.907 6.79598 10.7225L7.54931 10.3869V8.69528L7.91744 8.89584C8.20111 9.05025 8.48496 9.20435 8.76897 9.35813L9.25236 9.61985L9.46746 9.52258C9.60236 9.46149 9.737 9.39979 9.87135 9.33751C9.97517 9.28916 10.23 9.17437 10.4377 9.08237C10.6454 8.99033 10.8376 8.89778 10.8648 8.87668C10.901 8.84866 10.4595 8.60468 9.23178 7.97421C8.30633 7.49896 7.51945 7.11164 7.48316 7.1135C7.44687 7.11535 7.0986 7.2814 6.70922 7.48254ZM13.6766 7.58524C13.1944 7.8029 12.7996 7.98969 12.7992 8.00034C12.7987 8.01098 13.0615 8.16724 13.3832 8.34752C13.7048 8.52785 13.968 8.68502 13.968 8.69686C13.968 8.70867 13.6833 8.84657 13.3355 9.00336C12.9877 9.16012 12.1084 9.55719 11.3816 9.88575L8.94631 10.9865C8.33371 11.2635 7.78152 11.5131 7.71922 11.5413C6.46795 12.1077 6.12402 12.2649 6.07679 12.2919C6.0293 12.3191 6.01854 12.4769 6.01009 13.2689L6 14.2136L6.63308 14.5361L7.26614 14.8587L8.14398 14.4625C8.62681 14.2447 9.02182 14.055 9.02182 14.041C9.02182 14.0271 8.9326 13.9689 8.8236 13.9118C8.71455 13.8546 8.48945 13.728 8.32332 13.6305C8.1572 13.5329 7.99156 13.4434 7.95519 13.4315C7.91884 13.4196 7.88962 13.3989 7.89021 13.3854C7.89082 13.3719 8.27738 13.1883 8.74918 12.9774C9.66558 12.5676 10.3669 12.2518 11.8725 11.571C12.5457 11.2666 13.219 10.9624 13.8924 10.6584C14.4843 10.3912 15.1724 10.0792 15.4216 9.96505L15.8747 9.75745L15.8847 8.80202L15.8949 7.84664L15.2528 7.51707C14.8996 7.33582 14.5977 7.18797 14.5819 7.18851C14.5661 7.18901 14.1587 7.36752 13.6766 7.58524ZM15.7026 11.032C15.608 11.0782 15.4211 11.1648 15.2873 11.2243C15.1535 11.2838 14.8996 11.3984 14.7231 11.4789L14.4022 11.6253L14.3948 12.4641C14.3908 12.9254 14.3738 13.3008 14.3571 13.2984C14.3191 13.2927 13.7176 12.9842 13.113 12.6602C12.6766 12.4264 12.6491 12.4171 12.5466 12.4679C12.4873 12.4973 12.133 12.6562 11.7592 12.8211C11.3854 12.986 11.0674 13.1317 11.0524 13.1449C11.0375 13.1581 11.7898 13.5658 12.7243 14.0511L14.4232 14.9333L15.149 14.5579C15.5481 14.3514 15.8875 14.1631 15.9031 14.1394C15.9383 14.0861 15.9353 10.9407 15.9 10.9449C15.8861 10.9466 15.7973 10.9858 15.7026 11.032ZM11.6837 14.724C11.5578 14.7781 11.4319 14.8323 11.3061 14.8866C10.9262 15.051 11.0006 15.0564 10.5486 14.8314C10.2475 14.6815 10.1177 14.6353 10.0614 14.6577C10.0192 14.6745 9.65553 14.8381 9.25327 15.0213C8.85104 15.2044 8.50799 15.3542 8.49092 15.3542C8.32216 15.3542 8.60272 15.5218 9.68537 16.0679L10.955 16.7084L11.4893 16.4446C11.7831 16.2996 12.3757 16.0091 12.8063 15.7991C13.2368 15.5891 13.5837 15.4118 13.5772 15.4051C13.5706 15.3985 13.2099 15.2132 12.7755 14.9935L11.9857 14.594L11.6837 14.724Z" fill="#8F95B2"/>
</g>
<defs>
<clipPath id="clip0_71_4161">
<rect width="9.93829" height="11.4286" fill="white" transform="translate(6 5.28573)"/>
</clipPath>
</defs>
</svg>
