<svg width="56" height="56" viewBox="0 0 56 56" fill="none" xmlns="http://www.w3.org/2000/svg">
<path d="M53.375 11.2525L28.875 2.50247C28.315 2.29247 27.685 2.29247 27.125 2.50247L2.625 11.2525C1.59245 11.6374 0.875 12.6174 0.875 13.7199V42.2799C0.892517 43.3824 1.59245 44.38 2.625 44.7475L27.125 53.4975C27.685 53.7075 28.315 53.7075 28.875 53.4975L53.375 44.7475C54.04 44.5025 54.6 44.0124 54.88 43.3649C55.0375 43.0324 55.1075 42.665 55.125 42.2799V13.7199C55.125 12.6174 54.4076 11.62 53.375 11.2525ZM25.375 47.3024L6.125 40.425V17.4475L25.375 24.3249V47.3024Z" fill="#FE4600"/>
<path d="M5.83634 40.25V40.4522L6.02635 40.5213L25.2764 47.5213L25.6637 47.6621V47.25V24.5V24.2978L25.4736 24.2287L6.22365 17.2287L5.83634 17.0879V17.5V40.25Z" fill="white" stroke="#FE4600" stroke-width="0.57732"/>
<line x1="9.10876" y1="25.5492" x2="21.1997" y2="30.0037" stroke="black" stroke-width="1.15464" stroke-dasharray="1.15 1.15"/>
<line x1="9.00897" y1="29.6383" x2="21.0999" y2="34.0928" stroke="black" stroke-width="0.57732"/>
<line x1="9.00046" y1="33.4534" x2="12.8186" y2="34.7262" stroke="black" stroke-width="0.57732"/>
<line x1="9.09174" y1="36.3614" x2="12.9099" y2="37.6342" stroke="black" stroke-width="1.15464" stroke-dasharray="1.15 1.15"/>
</svg>
