<svg width="32" height="32" viewBox="0 0 32 32" fill="none" xmlns="http://www.w3.org/2000/svg">
<circle cx="16" cy="16" r="16" fill="white"/>
<g clip-path="url(#clip0_108_484)">
<path d="M25.0625 10.0187L16.3125 6.89374C16.1125 6.81874 15.8875 6.81874 15.6875 6.89374L6.9375 10.0187C6.56873 10.1562 6.3125 10.5062 6.3125 10.9V21.1C6.31876 21.4937 6.56873 21.85 6.9375 21.9812L15.6875 25.1062C15.8875 25.1812 16.1125 25.1812 16.3125 25.1062L25.0625 21.9812C25.3 21.8937 25.5 21.7187 25.6 21.4875C25.6563 21.3687 25.6812 21.2375 25.6875 21.1V10.9C25.6875 10.5062 25.4313 10.15 25.0625 10.0187ZM15.0625 22.8937L8.1875 20.4375V12.2312L15.0625 14.6875V22.8937Z" fill="#FE4600"/>
<path d="M8.08441 20.375V20.4472L8.15227 20.4719L15.0273 22.9719L15.1656 23.0222V22.875V14.75V14.6778L15.0977 14.6531L8.22273 12.1531L8.08441 12.1028V12.25V20.375Z" fill="white" stroke="#FE4600" stroke-width="0.206186"/>
</g>
<defs>
<clipPath id="clip0_108_484">
<rect width="20" height="20" fill="white" transform="translate(6 6)"/>
</clipPath>
</defs>
</svg>
