<svg width="16" height="16" viewBox="0 0 16 16" fill="none" xmlns="http://www.w3.org/2000/svg">
<path d="M5.49533 4.89333L1.242 5.50999L1.16666 5.52533C1.05262 5.5556 0.94866 5.6156 0.865391 5.6992C0.782123 5.78279 0.722532 5.88699 0.692705 6.00115C0.662877 6.1153 0.663881 6.23533 0.695615 6.34898C0.727348 6.46262 0.788674 6.5658 0.87333 6.64799L3.95466 9.64733L3.228 13.884L3.21933 13.9573C3.21235 14.0753 3.23684 14.193 3.2903 14.2983C3.34375 14.4037 3.42425 14.493 3.52355 14.557C3.62285 14.621 3.73739 14.6575 3.85543 14.6627C3.97347 14.6679 4.09077 14.6417 4.19533 14.5867L7.99933 12.5867L11.7947 14.5867L11.8613 14.6173C11.9714 14.6607 12.091 14.674 12.2078 14.6558C12.3247 14.6377 12.4347 14.5888 12.5264 14.5142C12.6181 14.4395 12.6884 14.3418 12.7299 14.2311C12.7714 14.1203 12.7827 14.0006 12.7627 13.884L12.0353 9.64733L15.118 6.64733L15.17 6.59066C15.2443 6.49917 15.293 6.38963 15.3111 6.27319C15.3293 6.15675 15.3163 6.03758 15.2734 5.92781C15.2305 5.81805 15.1593 5.72162 15.067 5.64834C14.9747 5.57506 14.8646 5.52755 14.748 5.51066L10.4947 4.89333L8.59333 1.03999C8.53831 0.92835 8.45314 0.834337 8.34746 0.768597C8.24177 0.702857 8.11979 0.668015 7.99533 0.668015C7.87087 0.668015 7.74889 0.702857 7.6432 0.768597C7.53752 0.834337 7.45235 0.92835 7.39733 1.03999L5.49533 4.89333Z" fill="#FE4600"/>
</svg>
