<svg width="16" height="16" viewBox="0 0 16 16" fill="none" xmlns="http://www.w3.org/2000/svg">
<g clip-path="url(#clip0_108_769)">
<path d="M9.15201 2.296L10.3253 4.662C10.4853 4.99133 10.912 5.30733 11.272 5.36733L13.398 5.724C14.758 5.95266 15.078 6.94733 14.098 7.92866L12.4447 9.59533C12.1647 9.87733 12.0113 10.422 12.098 10.812L12.5713 12.8753C12.9447 14.5087 12.0847 15.14 10.6513 14.2867L8.65801 13.0967C8.29801 12.882 7.70467 12.882 7.33801 13.0967L5.34601 14.2867C3.91934 15.14 3.05267 14.5013 3.42601 12.8753L3.89934 10.812C3.98601 10.422 3.83267 9.87733 3.55267 9.59533L1.89934 7.92866C0.926674 6.94666 1.24001 5.95266 2.59934 5.724L4.72601 5.36733C5.07934 5.30733 5.50601 4.99133 5.66601 4.662L6.83934 2.296C7.47934 1.01266 8.51934 1.01266 9.15267 2.296" stroke="black" stroke-linecap="round" stroke-linejoin="round"/>
</g>
<defs>
<clipPath id="clip0_108_769">
<rect width="16" height="16" fill="white"/>
</clipPath>
</defs>
</svg>
