<svg width="22" height="22" viewBox="0 0 22 22" fill="none" xmlns="http://www.w3.org/2000/svg">
<g clip-path="url(#clip0_71_4157)">
<path d="M16.3519 6.49104C16.3628 6.42561 16.3564 6.35847 16.3334 6.29627C16.3103 6.23406 16.2715 6.17895 16.2206 6.13639C16.1697 6.09383 16.1086 6.06529 16.0433 6.05359C15.978 6.0419 15.9108 6.04745 15.8483 6.06971L5.18165 9.87923C5.11134 9.9043 5.04994 9.94948 5.00509 10.0091C4.96024 10.0688 4.9339 10.1403 4.92936 10.2149C4.92481 10.2894 4.94226 10.3636 4.97952 10.4282C5.01679 10.4929 5.07224 10.5452 5.13898 10.5787L8.1866 12.1025C8.24666 12.1325 8.3136 12.1462 8.38064 12.142C8.44767 12.1379 8.51242 12.1161 8.56832 12.0789L11.0978 10.392L9.58393 12.2861C9.55099 12.3273 9.52697 12.3749 9.5134 12.4259C9.49982 12.4769 9.49699 12.5302 9.50509 12.5823C9.51318 12.6345 9.53203 12.6844 9.56042 12.7289C9.58881 12.7734 9.62614 12.8115 9.67003 12.8408L14.2415 15.8884C14.2944 15.9236 14.3553 15.945 14.4186 15.9506C14.4819 15.9562 14.5457 15.9459 14.604 15.9206C14.6623 15.8953 14.7134 15.8558 14.7525 15.8058C14.7917 15.7557 14.8177 15.6966 14.8281 15.6339L16.3519 6.49104Z" fill="#8F95B2"/>
</g>
<circle cx="11" cy="11" r="10" stroke="#8F95B2" stroke-width="0.5"/>
<defs>
<clipPath id="clip0_71_4157">
<rect width="11.4286" height="11.4286" fill="white" transform="translate(4.92871 5.28571)"/>
</clipPath>
</defs>
</svg>
