<svg width="22" height="22" viewBox="0 0 22 22" fill="none" xmlns="http://www.w3.org/2000/svg">
<g clip-path="url(#clip0_71_4153)">
<path d="M16.9233 7.79843C16.5159 7.97892 16.0784 8.10087 15.6184 8.156C16.093 7.87199 16.4481 7.425 16.6174 6.89843C16.1715 7.16331 15.6834 7.34975 15.1745 7.44965C14.8322 7.08422 14.3789 6.84201 13.8849 6.76062C13.3909 6.67923 12.8838 6.76321 12.4424 6.99953C12.001 7.23586 11.65 7.61129 11.4438 8.06756C11.2377 8.52382 11.1879 9.03539 11.3023 9.52283C10.3987 9.47746 9.51479 9.24261 8.70786 8.83351C7.90093 8.42442 7.18904 7.85022 6.61839 7.14819C6.42327 7.48478 6.31107 7.87502 6.31107 8.29063C6.31085 8.66477 6.40299 9.03319 6.5793 9.36318C6.75562 9.69318 7.01066 9.97455 7.3218 10.1823C6.96096 10.1709 6.60808 10.0734 6.29253 9.89795V9.92722C6.2925 10.452 6.47401 10.9606 6.80628 11.3667C7.13855 11.7729 7.60111 12.0516 8.11546 12.1555C7.78072 12.2461 7.42977 12.2594 7.08912 12.1945C7.23424 12.6461 7.51692 13.0409 7.89759 13.3238C8.27826 13.6066 8.73786 13.7634 9.21205 13.7721C8.40709 14.404 7.41297 14.7468 6.38961 14.7453C6.20833 14.7453 6.02721 14.7347 5.84717 14.7136C6.88594 15.3814 8.09514 15.7359 9.33009 15.7345C13.5106 15.7345 15.7959 12.2721 15.7959 9.26917C15.7959 9.17161 15.7935 9.07307 15.7891 8.97551C16.2337 8.65403 16.6174 8.25594 16.9223 7.7999L16.9233 7.79843Z" fill="#8F95B2"/>
</g>
<circle cx="11" cy="11" r="10" stroke="#8F95B2" stroke-width="0.5"/>
<defs>
<clipPath id="clip0_71_4153">
<rect width="11.7073" height="11.7073" fill="white" transform="translate(5.39062 5.39023)"/>
</clipPath>
</defs>
</svg>
